<svg width="238" height="153" viewBox="0 0 238 153" fill="none" xmlns="http://www.w3.org/2000/svg">
<path d="M132.258 122.435C133.992 122.435 135.856 122.348 137.938 122.218C144.181 121.828 150.512 120.874 157.319 119.313C158.099 119.14 158.966 118.836 159.01 117.666C159.01 117.059 158.576 116.625 157.406 115.844C156.668 115.368 156.365 115.151 155.715 114.63L152.81 112.419L156.452 112.289C158.273 112.246 160.05 112.029 161.871 111.769C165.904 111.118 169.936 110.165 173.838 108.951C175.182 108.517 176.31 106.913 176.223 105.569C176.093 103.834 175.096 102.75 173.448 102.187C170.543 101.189 167.898 100.409 164.646 98.6746L161.394 96.9403L164.993 96.2032C165.47 96.1165 165.904 96.0298 166.381 95.9431C167.291 95.7696 168.158 95.6396 169.026 95.4228C171.15 94.9458 173.361 94.3388 175.182 92.9514C176.093 92.301 176.527 91.1737 176.353 90.003C176.223 88.919 175.573 88.0085 174.619 87.6183C172.928 86.9246 171.28 85.9273 169.242 84.5399C164.473 81.2013 159.92 77.5158 155.498 73.9604L154.587 73.2234C152.506 71.5324 150.468 69.7547 148.474 68.0204C148.04 67.6302 147.607 67.2399 147.173 66.8931C142.36 62.6873 136.55 60.1725 129.916 59.4788C129.266 59.3921 128.572 59.3921 127.879 59.3921C126.491 59.3921 125.06 59.5222 123.673 59.6522C118.34 60.1292 113.57 61.6901 109.538 64.3349C105.592 66.9364 102.167 70.6219 99.3922 75.3046C95.7068 81.5048 94.6662 89.0058 95.9236 96.0298C97.0509 102.317 100.129 107.997 104.682 112.549C107.457 115.281 110.882 117.492 115.478 119.487C120.378 121.481 125.667 122.435 132.258 122.435Z" fill="url(#paint0_linear_61_798)"/>
<path d="M97.3112 92.3014C97.3546 89.6566 97.6581 86.8817 98.9589 83.3696C100.563 78.9471 102.861 74.9581 106.503 71.7063C108.238 70.1887 110.145 68.9314 112.53 68.5411C114.048 68.281 115.522 68.1509 117.039 68.0642C120.595 67.9341 124.15 68.1075 127.662 68.4978C130.914 68.888 134.209 69.3216 137.374 70.102C143.011 71.4461 146.783 75.0015 149.428 79.6408C151.379 83.0661 152.029 86.7516 151.726 90.6105C151.422 94.426 150.208 97.8513 147.65 100.843C144.702 104.312 140.93 106.263 136.16 106.219C132.388 106.176 129.18 104.832 126.361 102.534C124.714 101.233 122.979 100.063 121.028 99.2821C116.519 97.4611 112.14 97.5044 107.934 100.019C107.284 100.409 106.59 100.713 105.853 100.93C102.861 101.84 100.346 100.886 98.7854 98.3282C97.6147 96.3771 97.528 94.1225 97.3112 92.3014Z" fill="#F45E1F"/>
<path d="M97.3112 90.8704C97.3546 88.0955 97.6581 85.2339 98.9589 81.5918C100.563 77.0392 102.861 72.8334 106.503 69.4515C108.238 67.8472 110.145 66.5898 112.53 66.1996C114.048 65.9395 115.522 65.766 117.039 65.7227C120.595 65.5926 124.15 65.766 127.662 66.1996C130.914 66.5898 134.209 67.0668 137.374 67.8906C143.011 69.3214 146.783 72.9635 149.428 77.8196C151.379 81.375 152.029 85.1905 151.726 89.2228C151.422 93.1684 150.208 96.7671 147.65 99.8889C144.702 103.488 140.93 105.482 136.16 105.482C132.388 105.439 129.18 104.051 126.361 101.667C124.714 100.279 122.979 99.1085 121.028 98.2847C116.519 96.3769 112.14 96.4636 107.934 99.0651C107.284 99.4554 106.59 99.8022 105.853 100.019C102.861 100.973 100.346 99.9757 98.7854 97.3308C97.6147 95.0762 97.528 92.7782 97.3112 90.8704Z" fill="#EEEEED"/>
<path d="M97.5275 89.4828C97.5709 86.7078 97.8744 84.3231 98.6982 81.5482C100.302 76.9522 102.6 72.7899 106.243 69.4079C107.977 67.8037 109.885 66.5463 112.269 66.1127C113.743 65.8525 115.261 65.6791 116.779 65.6358C120.334 65.5057 123.889 65.6791 127.401 66.1127C130.653 66.5029 133.948 66.9799 137.114 67.8037C142.75 69.2345 146.522 72.8766 149.167 77.7327C151.118 81.2881 151.595 83.6728 151.595 87.8785C151.378 92.0843 150.425 95.3361 147.866 98.4579C144.918 102.057 141.146 104.094 136.376 104.051C132.604 104.008 129.396 102.577 126.578 100.236C124.93 98.8481 123.196 97.6775 121.244 96.8537C116.735 94.9459 112.356 95.0326 108.15 97.6341C107.5 98.0243 106.806 98.3712 106.069 98.588C103.077 99.5419 100.563 98.5446 99.0017 95.8998C97.7877 93.6885 97.701 91.3472 97.5275 89.4828Z" fill="white"/>
<path d="M137.504 88.5291C137.504 89.8299 137.331 91.0005 136.94 92.1279C136.724 92.6915 136.724 93.2552 136.984 93.8188C137.2 94.3391 137.634 94.7727 138.198 94.9895C139.368 95.5098 140.756 95.1196 141.276 93.9923C143.531 89.3096 143.834 84.6269 141.103 80.0309C137.591 74.0908 130.133 73.3971 125.364 78.47C122.589 81.4184 121.418 84.9304 121.548 88.9193C121.592 90.0033 122.242 90.697 123.239 90.7404C124.28 90.7837 124.973 90.1334 125.06 88.9627C125.277 86.6647 126.144 84.6702 127.835 83.0226C130.87 80.0743 134.816 80.768 136.637 84.5835C137.287 85.9276 137.547 87.2717 137.504 88.5291Z" fill="#353331"/>
<path d="M117.949 83.7163C117.906 80.8113 117.126 77.9497 115.261 75.3916C112.183 71.1425 106.72 70.9257 103.294 74.9146C101.473 77.0825 100.563 79.6407 100.172 82.3722C99.999 83.673 99.9557 84.9737 100.172 86.2745C100.346 87.4018 100.866 88.0088 101.777 88.0088C102.687 88.0088 103.338 87.3151 103.338 86.1878C103.381 84.7569 103.511 83.3261 104.118 81.982C104.595 80.8981 105.202 79.9442 106.069 79.1637C107.76 77.6028 109.798 77.6896 111.359 79.5106C112.703 81.0715 113.267 82.9359 113.353 84.9737C113.397 86.0143 113.31 87.0549 113.093 88.0955C112.79 89.3096 113.527 90.4802 114.611 90.7404C115.738 91.0005 116.692 90.3935 117.126 89.1361C117.689 87.4885 117.906 85.7108 117.949 83.7163Z" fill="#353331"/>
<path fill-rule="evenodd" clip-rule="evenodd" d="M122.92 54.6685C123.159 54.9239 123.398 55.1794 123.636 55.4349C123.846 55.6361 124.043 55.8787 124.253 56.0799C124.422 56.2683 124.604 56.4153 124.772 56.6037C124.842 56.6707 124.871 56.725 124.941 56.792C125.109 56.9804 125.249 57.1146 125.431 57.2615C125.542 57.3414 125.599 57.4499 125.711 57.5298C125.851 57.664 125.991 57.7981 126.131 57.9322C126.229 58.0536 126.382 58.1463 126.481 58.2676C126.621 58.4017 126.802 58.5487 126.942 58.6829C127.194 58.8969 127.445 59.1109 127.697 59.325C127.948 59.539 128.241 59.7659 128.492 59.9799C128.534 59.9927 128.562 60.047 128.604 60.0598C128.855 60.2738 129.161 60.4593 129.412 60.6733C137.985 67.141 149.767 72.3331 160.838 74.3998L160.861 74.1799L162.161 44.6253L162.613 34.3711L162.633 34.0141L163.138 23.0045L163.15 22.9631L163.096 22.9916L144.715 37.4975L132.347 47.2391L123.096 54.5413L122.92 54.6685Z" fill="#F91E89"/>
<path fill-rule="evenodd" clip-rule="evenodd" d="M122.92 54.6687C123.159 54.9242 123.398 55.1797 123.636 55.4351C123.846 55.6363 124.044 55.8789 124.254 56.0802C124.422 56.2685 124.604 56.4155 124.772 56.6039C124.842 56.671 124.871 56.7252 124.941 56.7923C125.109 56.9807 125.249 57.1148 125.431 57.2618C125.542 57.3417 125.599 57.4502 125.711 57.5301C125.851 57.6642 125.991 57.7984 126.131 57.9325C126.23 58.0538 126.382 58.1465 126.481 58.2678C126.621 58.402 126.802 58.549 126.942 58.6831C127.194 58.8971 127.445 59.1112 127.697 59.3252C127.948 59.5393 128.241 59.7661 128.493 59.9802C128.534 59.993 128.563 60.0472 128.604 60.0601C128.855 60.2741 129.161 60.4595 129.413 60.6736L129.709 60.4478L158.486 37.5866L162.585 34.3171L162.604 33.9601L163.109 22.9505L163.122 22.9091L163.068 22.9377L144.686 37.4435L132.319 47.1851L123.067 54.4873L122.92 54.6687Z" fill="#FF5A9A"/>
<path d="M160.005 80.315C161.684 80.6081 163.318 79.4348 163.612 77.7554C163.905 76.076 162.731 74.4417 161.052 74.1486C154.28 73.0046 147.138 70.5656 140.523 67.1554C134.144 63.8636 128.308 59.6961 123.749 54.9252C122.543 53.6894 120.608 53.6348 119.331 54.8279C118.095 56.0338 118.04 57.9687 119.233 59.246C124.229 64.5149 130.704 69.1075 137.666 72.716C144.822 76.4301 152.627 79.0742 160.005 80.315Z" fill="#FFBD49"/>
<path fill-rule="evenodd" clip-rule="evenodd" d="M163.218 22.8932C163.218 22.8932 162.37 15.9583 162.502 13.1851C162.622 10.4534 163.155 8.43975 163.155 8.43975L157.77 8.67857C157.77 8.67857 158.276 11.15 159.51 14.3464C160.84 17.527 163.218 22.8932 163.218 22.8932Z" fill="#FFC751"/>
<path fill-rule="evenodd" clip-rule="evenodd" d="M163.218 22.8934C163.218 22.8934 158.785 18.8878 157.28 17.1509C155.775 15.414 153.871 12.328 153.871 12.328L150.016 16.7169C150.016 16.7169 153.458 18.6454 156.076 19.8647C158.694 21.084 163.218 22.8934 163.218 22.8934Z" fill="#C900B0"/>
<path fill-rule="evenodd" clip-rule="evenodd" d="M163.218 22.8931C163.218 22.8931 167.196 19.1324 168.898 17.8891C170.599 16.6458 173.528 15.1019 173.528 15.1019L169.815 11.41C169.815 11.41 167.808 14.3742 166.512 16.6511C165.217 18.9279 163.218 22.8931 163.218 22.8931Z" fill="#C900B0"/>
<path fill-rule="evenodd" clip-rule="evenodd" d="M163.163 22.9217C163.163 22.9217 167.821 25.9076 169.496 27.2431C171.17 28.5787 173.378 31.1234 173.378 31.1234L176.118 26.5252C176.118 26.5252 172.69 25.2821 170.138 24.5825C167.573 23.9244 163.163 22.9217 163.163 22.9217Z" fill="#FFC751"/>
<path fill-rule="evenodd" clip-rule="evenodd" d="M163.218 22.8931C163.218 22.8931 157.33 22.7038 155.103 22.4224C152.572 22.0926 149.64 21.5932 149.64 21.5932L150.133 26.0123C150.133 26.0123 153.257 25.8905 156.217 25.1277C158.972 24.4378 163.218 22.8931 163.218 22.8931Z" fill="#FFC751"/>
<path fill-rule="evenodd" clip-rule="evenodd" d="M145.086 65.0272L148.455 64.8452C148.921 64.8078 149.392 65.0446 149.688 65.4085L151.762 68.0932C152.509 69.0509 154.052 68.7573 154.329 67.5719L155.205 64.3029C155.346 63.8473 155.694 63.4558 156.157 63.2813L159.369 62.1428C160.539 61.7337 160.699 60.1943 159.683 59.5166L156.846 57.6849C156.429 57.4195 156.2 56.9856 156.175 56.4787L156.089 53.0931C156.063 51.8594 154.623 51.232 153.707 51.9922L151.092 54.1328C150.728 54.4286 150.196 54.536 149.74 54.3949L146.497 53.4358C145.337 53.0767 144.251 54.2382 144.714 55.3803L145.961 58.5353C146.136 58.9978 146.078 59.4791 145.812 59.8962L143.898 62.7075C143.124 63.7389 143.893 65.0664 145.086 65.0272Z" fill="#FFC751"/>
<path fill-rule="evenodd" clip-rule="evenodd" d="M132.402 47.2109C132.809 47.6547 133.418 47.8886 134.043 47.6283L137.198 46.3813C137.661 46.2068 138.142 46.265 138.559 46.5304L141.37 48.445C142.386 49.1226 143.713 48.3536 143.687 47.1199L143.464 43.7373C143.426 43.2718 143.663 42.8004 144.027 42.5046L146.712 40.4311C147.669 39.6837 147.376 38.1403 146.19 37.864L144.756 37.5107L132.402 47.2109Z" fill="#FFC751"/>
<path fill-rule="evenodd" clip-rule="evenodd" d="M157.542 35.7958L158.623 37.583L159.277 38.6935C159.506 39.1274 159.531 39.6343 159.348 40.0771L157.933 43.1794C157.409 44.2878 158.395 45.5009 159.61 45.2418L162.298 44.6219L162.75 34.3677L162.77 34.0107C162.633 34.0136 162.537 34.0294 162.4 34.0323L159.031 33.6245C157.779 33.4182 156.916 34.7395 157.542 35.7958Z" fill="#FFC751"/>
<path d="M105.376 113.503L93.8424 87.4451L75.7187 105.959L101.473 117.492L105.376 113.503Z" fill="#FFD20A"/>
<path d="M57.6381 105.222C58.2885 104.572 59.3725 104.572 60.0228 105.222C60.6732 105.872 60.6732 106.956 60.0228 107.607C59.3725 108.257 58.2885 108.257 57.6381 107.607C56.9878 106.956 56.9878 105.916 57.6381 105.222Z" fill="#00E93B"/>
<path d="M55.0365 98.068C55.1233 97.5911 55.5568 97.2876 56.0338 97.3743C57.5947 97.6778 59.2423 96.4637 60.9332 95.2497C64.1418 92.9084 67.5237 90.4803 72.0329 95.1196C72.3798 95.4665 72.3798 96.0302 72.0329 96.3337C71.6861 96.6805 71.1658 96.6805 70.8189 96.3337C67.3503 92.7349 64.5753 94.7728 61.9739 96.6805C59.9794 98.1114 58.0282 99.5422 55.7736 99.1086C55.2533 98.9785 54.9498 98.5449 55.0365 98.068Z" fill="#DC1FFF"/>
<path d="M55.6438 71.6626C60.8468 71.6626 62.1042 75.4348 63.4049 79.4237C64.5322 82.849 65.7029 86.4911 70.0387 87.2282C70.559 87.3149 71.0793 87.4016 71.5563 87.445C71.9899 87.4883 72.4668 87.5751 72.9437 87.5751C72.9871 87.5751 72.9871 87.5751 73.0304 87.5751C73.5074 87.6184 73.8542 88.0086 73.8542 88.4856C73.8109 88.9625 73.4207 89.3094 72.9437 89.3094C72.4234 89.266 71.8598 89.2227 71.3395 89.136C70.7758 89.0492 70.2555 88.9625 69.7786 88.8758C64.4022 87.9653 63.0581 83.8029 61.8007 79.9007C60.7167 76.5187 59.6761 73.3536 55.6872 73.3102C55.2102 73.3102 54.82 72.92 54.82 72.443C54.7767 72.0528 55.1669 71.6626 55.6438 71.6626Z" fill="#FFD20A"/>
<path d="M82.6124 72.3998C83.6964 70.7522 84.6936 69.1913 84.4335 67.7171C84.3468 67.2401 84.6503 66.8066 85.1272 66.7198C85.6041 66.6331 86.0377 66.9366 86.1245 67.4136C86.558 69.5815 85.3006 71.4459 84.0433 73.3537C82.2656 76.0852 80.3578 78.9902 84.9971 82.6323C85.1706 82.7624 85.2573 82.9358 85.3007 83.1526C85.344 83.3694 85.3006 83.6295 85.1272 83.8463C84.8237 84.2366 84.3034 84.2799 83.9132 83.9764C83.5663 83.6729 83.2195 83.4128 82.9159 83.1526C78.3633 78.9035 80.5312 75.6083 82.6124 72.3998Z" fill="#35FF95"/>
<path d="M68.1744 73.1801L66.5268 69.9282L69.7353 71.6192L72.2501 69.061L71.7298 72.6164L74.8082 74.2207L71.3829 74.8277L70.8193 78.253L69.1717 75.1745L65.703 75.6515L68.1744 73.1801Z" fill="#FFD20A"/>
<path d="M74.2878 80.5078C74.9382 79.8574 76.0221 79.8574 76.6725 80.5078C77.3229 81.1582 77.3229 82.2421 76.6725 82.8925C76.5858 82.9792 76.4557 83.0659 76.3256 83.1526C75.8053 83.4562 75.1116 83.4562 74.5913 83.1526C74.4612 83.0659 74.3745 83.0226 74.2444 82.8925C73.6374 82.2421 73.6374 81.1582 74.2878 80.5078Z" fill="#00E93B"/>
<path d="M77.973 71.8363C77.0391 71.8363 76.282 71.0792 76.282 70.1453C76.282 69.2114 77.0391 68.4543 77.973 68.4543C78.9069 68.4543 79.6639 69.2114 79.6639 70.1453C79.6639 71.0792 78.9069 71.8363 77.973 71.8363Z" fill="#FFD20A"/>
<path d="M87.6853 77.2991C88.3356 76.6487 89.4196 76.6487 90.07 77.2991C90.7203 77.9494 90.7203 79.0334 90.07 79.6838C89.4196 80.3341 88.3356 80.3341 87.6853 79.6838C87.0349 79.0334 87.0349 77.9494 87.6853 77.2991Z" fill="#C755FF"/>
<path d="M59.8061 89.8299C58.8722 89.8299 58.1151 89.0729 58.1151 88.139C58.1151 87.2051 58.8722 86.448 59.8061 86.448C60.74 86.448 61.4971 87.2051 61.4971 88.139C61.4971 89.0729 60.74 89.8299 59.8061 89.8299Z" fill="#C755FF"/>
<path d="M63.9251 99.8888L66.3531 99.802L66.9602 97.4607L67.8707 99.7153L70.212 99.5852L68.391 101.103L69.2148 103.271L67.2203 102.057L65.3993 103.487L65.9629 101.233L63.9251 99.8888Z" fill="#FFD20A"/>
<path d="M100.519 117.059C104.248 118.793 106.026 119.14 106.503 118.446C107.023 117.622 106.286 115.368 104.769 112.073C103.685 114.067 102.687 115.194 100.519 117.059Z" fill="#00AFDF"/>
<path d="M89.2029 111.986L94.666 114.457C97.571 111.639 100.649 107.694 101.777 105.396L98.9151 98.8918C96.6171 103.401 93.8855 107.91 89.2029 111.986Z" fill="#00AFDF"/>
<path d="M78.5803 107.216L82.9595 109.167C88.3792 105.135 92.1514 98.5879 93.8857 93.5583C93.2787 94.6857 92.4983 95.8563 91.6311 97.027C90.7206 98.1977 89.68 99.4117 88.5093 100.582C85.7344 103.357 82.7427 105.482 80.1845 106.609C79.6209 106.869 79.0572 107.086 78.5803 107.216Z" fill="#00AFDF"/>
<path d="M74.7647 105.786C75.1116 106.133 75.6318 106.306 76.2822 106.306C76.3256 106.306 76.3689 106.306 76.4123 106.306C76.9326 106.306 77.4963 106.176 78.1466 106.002C78.6236 105.872 79.1005 105.656 79.6208 105.439C80.8348 104.919 82.1356 104.138 83.4797 103.141C84.8238 102.144 86.2113 100.973 87.5554 99.6722C90.2436 96.984 92.2381 94.1657 93.322 91.7376C93.5388 91.304 93.7122 90.8271 93.8423 90.4369C94.1024 89.5697 94.2325 88.7892 94.1892 88.1822C94.1892 88.1389 94.1892 88.0955 94.1892 88.0955C94.1458 87.6186 93.9724 87.185 93.6689 86.8815C92.8451 86.0577 91.024 86.2311 88.8127 87.2284C86.3847 88.3123 83.5664 90.3068 80.8782 92.995C78.19 95.6832 76.1955 98.5015 75.1116 100.93C74.1143 103.141 73.9409 104.962 74.7647 105.786Z" fill="#00AFDF"/>
<ellipse cx="134.69" cy="134.435" rx="41.7003" ry="6.2522" fill="#3E1B93" fill-opacity="0.33"/>
<defs>
<linearGradient id="paint0_linear_61_798" x1="146.506" y1="61.9971" x2="126.284" y2="126.032" gradientUnits="userSpaceOnUse">
<stop stop-color="#FF7D24"/>
<stop offset="1" stop-color="#FD561B"/>
</linearGradient>
</defs>
</svg>
