<svg width="206" height="145" viewBox="0 0 206 145" fill="none" xmlns="http://www.w3.org/2000/svg">
<g clip-path="url(#clip0_221_3460)">
<path d="M189.623 134.269C188.194 135.964 191.962 141.438 193.91 144.218C194.82 145.521 196.032 147.172 197.548 148.953C198.891 150.561 198.761 152.907 197.245 154.34C194.647 156.773 191.399 159.597 187.588 162.551C186.375 163.464 181.958 166.809 175.116 170.893C172.994 172.152 170.655 173.456 168.1 174.803C164.246 176.801 159.959 178.886 155.238 180.798C148.439 183.578 140.861 186.055 132.676 187.749C118.948 190.573 64.2095 201.868 31.6868 165.549C27.2696 160.596 23.3288 154.862 20.0809 148.519C17.3093 143.088 15.1007 137.223 13.585 131.098C12.5456 126.927 11.8095 122.583 11.463 118.152C10.8567 110.809 11.2898 103.207 12.9354 95.5172C15.9235 81.5716 22.2462 70.5803 29.4782 62.0218C43.6825 45.2959 61.2647 38.1276 63.5599 37.2587C96.0826 24.7034 130.337 35.6078 146.88 51.4649C160.435 64.4981 167.234 77.4879 167.234 77.4879C168.88 80.6593 172.344 87.7841 178.234 97.559C178.58 98.1673 178.927 98.732 179.273 99.2534C183.041 105.336 184.686 107.334 186.245 108.898C190.576 113.242 195.383 115.849 199.54 117.5C202.052 118.456 202.788 121.627 201.056 123.669C200.19 124.712 199.237 125.754 198.241 126.84C195.383 129.795 192.568 132.14 190.099 133.965C189.97 134.009 189.796 134.095 189.623 134.269Z" fill="#F15A24"/>
<path d="M41.9937 58.1118C37.36 63.7161 33.3325 69.7983 30.2145 76.4018C25.0178 87.3497 22.5061 102.685 36.3206 104.119C45.0251 105.031 53.3831 86.0463 70.0992 87.6972C82.8744 88.9571 90.6694 114.111 116.436 116.587C142.203 119.064 147.617 108.203 150.778 95.0393C153.939 81.8757 140.081 41.2555 95.4331 39.735C75.6423 39.0833 51.6509 46.5123 41.9937 58.1118Z" fill="white"/>
<path d="M56.06 74.1728C60.4012 64.384 60.9806 55.1366 57.3543 53.5181C53.728 51.8996 47.2691 58.523 42.9279 68.3118C38.5868 78.1006 38.0073 87.348 41.6337 88.9665C45.26 90.585 51.7189 83.9616 56.06 74.1728Z" fill="#333333"/>
<path d="M101.812 93.9272C109.312 93.538 114.903 83.743 114.3 72.0494C113.698 60.3558 107.129 51.1918 99.6284 51.581C92.1282 51.9701 86.5369 61.7652 87.1398 73.4588C87.7427 85.1524 94.3116 94.3164 101.812 93.9272Z" fill="#333333"/>
<path d="M60.104 61.2708C60.2659 58.0529 59.0883 55.3773 57.4738 55.2948C55.8593 55.2122 54.4193 57.754 54.2574 60.972C54.0956 64.1899 55.2732 66.8655 56.8877 66.948C58.5021 67.0305 59.9422 64.4888 60.104 61.2708Z" fill="white"/>
<path d="M109.27 65.9683C111.974 65.3447 113.543 62.1417 112.775 58.8143C112.008 55.4868 109.194 53.2949 106.491 53.9186C103.787 54.5422 102.218 57.7452 102.986 61.0726C103.753 64.4 106.567 66.5919 109.27 65.9683Z" fill="white"/>
<path d="M177.238 183.709C176.805 183.926 176.285 184.056 175.766 184.1C169.486 184.534 160.089 183.926 150.735 178.582C146.361 176.062 136.531 170.415 134.235 159.988C132.243 150.821 136.574 140.438 145.365 132.662C147.27 140.96 152.034 152.255 158.183 161.769C163.207 169.502 171.175 179.104 177.238 183.709Z" fill="#F15A24"/>
<path d="M177.238 183.709C171.175 179.103 163.207 169.459 158.184 161.726C152.034 152.255 147.27 140.96 145.365 132.618C146.361 131.706 147.4 130.881 148.526 130.055C150.475 128.621 153.247 129.317 154.373 131.445C162.601 147.042 170.786 162.638 179.014 178.235C180.14 180.32 179.187 182.796 177.238 183.709Z" fill="#E96200"/>
<path opacity="0.4" d="M179.273 99.2534C179.23 99.3403 179.23 99.4271 179.187 99.514C168.447 79.3994 152.034 63.6293 132.763 53.8978C119.078 46.9902 103.964 43.1671 88.3743 43.0802C75.0361 42.9933 63.1703 45.6 52.9068 49.5534C43.8126 53.0289 35.931 57.5471 29.4784 62.0653C43.6827 45.3393 61.2649 38.171 63.5601 37.3022C96.0827 24.7468 130.338 35.6513 146.88 51.5084C160.435 64.5416 167.234 77.5313 167.234 77.5313C168.88 80.7028 172.344 87.8276 178.234 97.6025C178.58 98.1673 178.927 98.732 179.273 99.2534Z" fill="white"/>
<path d="M160.434 86.6162C161.182 86.6162 161.38 84.4305 163.279 82.53C165.179 80.6296 167.365 80.4328 167.365 79.6852C167.365 78.9376 165.18 78.7401 163.279 76.8403C161.379 74.9406 161.182 72.7542 160.434 72.7542C159.687 72.7542 159.489 74.9399 157.59 76.8403C155.69 78.7408 153.503 78.9376 153.503 79.6852C153.503 80.4328 155.689 80.6303 157.59 82.53C159.49 84.4297 159.687 86.6162 160.434 86.6162Z" fill="white"/>
<path d="M29.4783 46.2728C31.0402 46.2728 31.4529 41.7063 35.4218 37.7359C39.3907 33.7654 43.9587 33.3543 43.9587 31.7924C43.9587 30.2305 39.3923 29.8179 35.4218 25.849C31.4513 21.88 31.0402 17.312 29.4783 17.312C27.9164 17.312 27.5038 21.8785 23.5349 25.849C19.5659 29.8194 14.9979 30.2305 14.9979 31.7924C14.9979 33.3543 19.5644 33.767 23.5349 37.7359C27.5053 41.7048 27.9164 46.2728 29.4783 46.2728Z" fill="white"/>
</g>
<defs>
<clipPath id="clip0_221_3460">
<rect width="206" height="145" fill="white"/>
</clipPath>
</defs>
</svg>
